<svg xmlns="http://www.w3.org/2000/svg" version="1.1" xmlns:xlink="http://www.w3.org/1999/xlink" width="1000" height="1000"><metadata><rdf:RDF xmlns:rdf="http://www.w3.org/1999/02/22-rdf-syntax-ns#" xmlns:dc="http://purl.org/dc/elements/1.1/"><rdf:Description><dc:creator>RealFaviconGenerator</dc:creator><dc:source>https://realfavicongenerator.net</dc:source></rdf:Description></rdf:RDF></metadata><style>
    #light-icon {
      display: inline;
    }
    #dark-icon {
      display: none;
    }

    @media (prefers-color-scheme: dark) {
      #light-icon {
        display: none;
      }
      #dark-icon {
        display: inline;
      }
    }
  </style><g id="light-icon"><svg xmlns="http://www.w3.org/2000/svg" version="1.1" xmlns:xlink="http://www.w3.org/1999/xlink" width="1000" height="1000"><g><g transform="matrix(18.867924528301888,0,0,18.867924528301888,-5.684341886080802e-14,-5.684341886080802e-14)"><svg xmlns="http://www.w3.org/2000/svg" width="53" height="53" viewBox="0 0 53 53" fill="none"><path d="M35.0002 20.9C28.1002 17.6 22.7002 12 19.6002 5C21.6002 2.9 24.2002 1.4 27.0002 0.5L28.5002 0C28.6002 0.2 28.7002 0.500012 28.7002 0.700012C31.1002 7.50001 36.0002 13 42.6002 16.1C47.2002 18.3 50.6002 22.3 52.2002 27.1L52.7002 28.6C52.5002 28.7 52.2002 28.8 52.0002 28.8C50.1002 29.5 48.2002 30.4 46.4002 31.5C43.9002 27 39.9002 23.2 35.0002 20.9Z" fill="#111111"></path><path d="M6.0004 21.2998C9.7004 26.8998 14.8004 31.3998 21.1004 34.3998C26.2004 36.7998 30.1004 41.2998 31.9004 46.6998L32.4004 48.3998C30.5004 50.0998 28.2004 51.3998 25.7004 52.1998L24.2004 52.6998C24.1004 52.4998 24.0004 52.1998 24.0004 51.9998C21.6004 45.1998 16.7004 39.6998 10.1004 36.5998C5.50039 34.3998 2.0004 30.3998 0.500397 25.5998L0.000396729 24.0998C2.1004 23.4998 4.1004 22.4998 6.0004 21.2998Z" fill="#111111"></path><path d="M36.4 43.1998C33.9 37.1998 29.3 32.2998 23.4 29.4998C18 26.8998 13.5 22.8998 10.4 17.9998C12.7 15.7998 14.6 13.2998 16 10.2998C19.7 17.0998 25.5 22.5998 32.6 25.9998C36.7 27.8998 40 31.1998 42 35.1998C39.8 37.2998 38 39.8998 36.6 42.7998C36.6 42.7998 36.5 42.9998 36.4 43.1998Z" fill="#111111"></path></svg></g></g></svg></g><g id="dark-icon"><svg xmlns="http://www.w3.org/2000/svg" version="1.1" xmlns:xlink="http://www.w3.org/1999/xlink" width="1000" height="1000"><g><g transform="matrix(18.867924528301888,0,0,18.867924528301888,-5.684341886080802e-14,-5.684341886080802e-14)"><svg xmlns="http://www.w3.org/2000/svg" width="53" height="53" viewBox="0 0 53 53" fill="none"><path d="M35.0002 20.9C28.1002 17.6 22.7002 12 19.6002 5C21.6002 2.9 24.2002 1.4 27.0002 0.5L28.5002 0C28.6002 0.2 28.7002 0.500012 28.7002 0.700012C31.1002 7.50001 36.0002 13 42.6002 16.1C47.2002 18.3 50.6002 22.3 52.2002 27.1L52.7002 28.6C52.5002 28.7 52.2002 28.8 52.0002 28.8C50.1002 29.5 48.2002 30.4 46.4002 31.5C43.9002 27 39.9002 23.2 35.0002 20.9Z" fill="#F5F5F5"></path><path d="M6.0004 21.2998C9.7004 26.8998 14.8004 31.3998 21.1004 34.3998C26.2004 36.7998 30.1004 41.2998 31.9004 46.6998L32.4004 48.3998C30.5004 50.0998 28.2004 51.3998 25.7004 52.1998L24.2004 52.6998C24.1004 52.4998 24.0004 52.1998 24.0004 51.9998C21.6004 45.1998 16.7004 39.6998 10.1004 36.5998C5.50039 34.3998 2.0004 30.3998 0.500397 25.5998L0.000396729 24.0998C2.1004 23.4998 4.1004 22.4998 6.0004 21.2998Z" fill="#F5F5F5"></path><path d="M36.4 43.1998C33.9 37.1998 29.3 32.2998 23.4 29.4998C18 26.8998 13.5 22.8998 10.4 17.9998C12.7 15.7998 14.6 13.2998 16 10.2998C19.7 17.0998 25.5 22.5998 32.6 25.9998C36.7 27.8998 40 31.1998 42 35.1998C39.8 37.2998 38 39.8998 36.6 42.7998C36.6 42.7998 36.5 42.9998 36.4 43.1998Z" fill="#F5F5F5"></path></svg></g></g></svg></g></svg>